<?xml version="1.0" encoding="UTF-8" standalone="no"?>
<svg width="33px" height="44px" viewBox="0 0 33 44" version="1.1" xmlns="http://www.w3.org/2000/svg" xmlns:xlink="http://www.w3.org/1999/xlink">
    <!-- Generator: Sketch 49 (51002) - http://www.bohemiancoding.com/sketch -->
    <title>Page 1</title>
    <desc>Created with Sketch.</desc>
    <defs></defs>
    <g id="2.0" stroke="none" stroke-width="1" fill="none" fill-rule="evenodd">
        <g id="Mobile" transform="translate(-95.000000, -19.000000)">
            <g id="Group-5" transform="translate(12.000000, 13.000000)">
                <g id="Page-1" transform="translate(83.000000, 6.000000)">
                    <polygon id="Fill-1" fill="#C8D2D6" points="14.5588235 44 32.0294118 44 32.0294118 34.4347826 14.5588235 34.4347826"></polygon>
                    <g id="Group-28">
                        <path d="M25.76535,44 L13.76535,44 L13.76535,35.6551724 L20.83485,35.6551724 C23.55885,35.6551724 25.76535,37.8877931 25.76535,40.6423448 L25.76535,44 Z" id="Fill-2" fill="#E7ECED"></path>
                        <path d="M20.89035,37.9310345 C21.9261,37.9310345 22.76535,38.779931 22.76535,39.8275862 C22.76535,40.8752414 21.9261,41.7241379 20.89035,41.7241379 C19.8546,41.7241379 19.01535,40.8752414 19.01535,39.8275862 C19.01535,38.779931 19.8546,37.9310345 20.89035,37.9310345" id="Fill-4" fill="#7383BF"></path>
                        <path d="M19.693575,8.11883448 C20.618325,7.70766207 21.265575,6.77607586 21.265575,5.68973103 C21.265575,4.22331724 20.090325,3.03455862 18.640575,3.03455862 C17.565825,3.03455862 16.644825,3.68924828 16.239075,4.62462759 L19.693575,8.11883448 Z" id="Fill-6" fill="#FBCE9D"></path>
                        <path d="M23.443575,11.9119379 C24.368325,11.5007655 25.015575,10.5691793 25.015575,9.48283448 C25.015575,8.01642069 23.840325,6.82766207 22.390575,6.82766207 C21.315825,6.82766207 20.394825,7.48235172 19.989075,8.41773103 L23.443575,11.9119379 Z" id="Fill-8" fill="#FBCE9D"></path>
                        <path d="M27.193575,15.7050414 C28.118325,15.293869 28.765575,14.3622828 28.765575,13.2759379 C28.765575,11.8095241 27.590325,10.6207655 26.140575,10.6207655 C25.065825,10.6207655 24.144825,11.2754552 23.739075,12.2108345 L27.193575,15.7050414 Z" id="Fill-10" fill="#FBCE9D"></path>
                        <path d="M30.943575,19.4981448 C31.868325,19.0869724 32.515575,18.1553862 32.515575,17.0690414 C32.515575,15.6026276 31.340325,14.413869 29.890575,14.413869 C28.815825,14.413869 27.894825,15.0685586 27.489075,16.0039379 L30.943575,19.4981448 Z" id="Fill-12" fill="#FBCE9D"></path>
                        <path d="M15.64035,25.0344828 L8.14035,25.0344828 C6.6966,25.0344828 5.51535,23.8396552 5.51535,22.3793103 C5.51535,20.9189655 6.6966,19.7241379 8.14035,19.7241379 L15.64035,19.7241379 C17.0841,19.7241379 18.26535,20.9189655 18.26535,22.3793103 C18.26535,23.8396552 17.0841,25.0344828 15.64035,25.0344828" id="Fill-14" fill="#FBCE9D"></path>
                        <path d="M31.117875,23.9447241 L22.777875,32.3798276 C22.105125,33.0603103 21.015375,33.0603103 20.344875,32.3798276 L13.083375,25.0348621 L8.141625,25.0348621 C7.708125,25.2495517 6.524625,24.4742414 6.978375,24.8687241 L15.087375,33.0383103 C15.143625,33.0952069 15.208125,33.1346552 15.266625,33.1862414 L15.266625,35.6555517 L30.265875,35.6555517 L30.265875,32.2341724 C31.630875,31.1956207 32.515875,29.5501724 32.515875,27.6900345 C32.515125,26.2539655 31.984875,24.9453448 31.117875,23.9447241" id="Fill-16" fill="#F7B563"></path>
                        <path d="M13.8345,2.1918069 L2.16675,13.993669 L7.86075,19.7531172 C7.9545,19.7432552 8.04525,19.7242897 8.1405,19.7242897 L15.6405,19.7242897 C17.08425,19.7242897 18.2655,20.9191172 18.2655,22.3794621 C18.2655,23.8398069 17.08425,25.0346345 15.6405,25.0346345 L13.08225,25.0346345 L17.8485,29.855669 L29.5155,18.0538069 L13.8345,2.1918069 Z" id="Fill-18" fill="#424A60"></path>
                        <path d="M13.8345,2.1918069 L12.17175,0.509944828 C11.49975,-0.16977931 10.41,-0.16977931 9.73875,0.509944828 L0.504,9.85008276 C-0.168,10.5298069 -0.168,11.6320828 0.504,12.3118069 L2.16675,13.993669 L13.8345,2.1918069 Z" id="Fill-20" fill="#E7ECED"></path>
                        <path d="M32.011425,20.5783448 L29.515425,18.0536552 L17.848425,29.8555172 L20.343675,32.3794483 C21.015675,33.0591724 22.105425,33.0591724 22.776675,32.3794483 L32.010675,23.0393103 C32.683425,22.3603448 32.683425,21.258069 32.011425,20.5783448" id="Fill-22" fill="#E7ECED"></path>
                        <path d="M25.39035,23.8965517 C26.21835,23.8965517 26.89035,24.5762759 26.89035,25.4137931 C26.89035,26.2513103 26.21835,26.9310345 25.39035,26.9310345 C24.56235,26.9310345 23.89035,26.2513103 23.89035,25.4137931 C23.89035,24.5762759 24.56235,23.8965517 25.39035,23.8965517" id="Fill-24" fill="#FFFFFF"></path>
                        <path d="M6.26535,8.34482759 C6.07335,8.34482759 5.88135,8.27048276 5.7351,8.12255172 C5.44185,7.82593103 5.44185,7.34648276 5.7351,7.04986207 L7.2351,5.53262069 C7.52835,5.236 8.00235,5.236 8.2956,5.53262069 C8.58885,5.82924138 8.58885,6.30868966 8.2956,6.60531034 L6.7956,8.12255172 C6.64935,8.27048276 6.45735,8.34482759 6.26535,8.34482759" id="Fill-26" fill="#424A60"></path>
                    </g>
                </g>
            </g>
        </g>
    </g>
</svg>